<svg viewBox="0 0 32 32" xmlns="http://www.w3.org/2000/svg"><g id="Layer_2" data-name="Layer 2"><g fill="#fed402"><path d="m23 16c0 4.41-2.59 8-7 8a8 8 0 0 1 0-16c4.41 0 7 3.59 7 8z" fill="#fed402"></path><path d="m16 6a1 1 0 0 1 -1-1v-2a1 1 0 0 1 2 0v2a1 1 0 0 1 -1 1z" fill="#fed402"></path><path d="m16 30a1 1 0 0 1 -1-1v-2a1 1 0 0 1 2 0v2a1 1 0 0 1 -1 1z" fill="#fed402"></path><path d="m5 17h-2a1 1 0 0 1 0-2h2a1 1 0 0 1 0 2z" fill="#fed402"></path><path d="m6.808 26.192a1 1 0 0 1 -.708-1.707l1.414-1.414a1 1 0 1 1 1.414 1.414l-1.413 1.415a1 1 0 0 1 -.707.292z" fill="#fed402"></path><path d="m8.222 9.222a1 1 0 0 1 -.707-.293l-1.415-1.414a1 1 0 0 1 1.415-1.415l1.414 1.415a1 1 0 0 1 -.707 1.707z" fill="#fed402"></path></g><path d="m24 16a8.011 8.011 0 0 1 -8 8v-16a8.011 8.011 0 0 1 8 8z" fill="#bfd7e8" style="fill: rgb(0, 0, 0);"></path></g></svg>