<svg width="109" height="105" viewBox="0 0 109 105" fill="none" xmlns="http://www.w3.org/2000/svg">
<path d="M66.6952 10.5802C67.711 10.5802 68.5352 9.75755 68.5352 8.74019C68.5352 7.72283 67.7125 6.90015 66.6952 6.90015H58.583C57.5656 6.90015 56.7429 7.72126 56.7429 8.74019C56.7429 9.75598 57.564 10.5802 58.583 10.5802H66.6952Z" fill="black"/>
<path d="M104.936 54.8291C103.138 53.2214 100.81 52.1962 98.3071 51.5462L91.476 42.748V6.80595C91.476 3.05365 88.424 0.00157166 84.6717 0.00157166H40.6049C36.8542 0.00157166 33.8021 3.05365 33.8021 6.80595V22.4463C33.711 22.4384 33.6231 22.418 33.5305 22.418H28.0166V16.9921C28.0166 15.4676 26.7811 14.2321 25.2566 14.2321C23.7321 14.2321 22.4965 15.4676 22.4965 16.9921V22.418H16.989C15.4645 22.418 14.2289 23.6552 14.2289 25.1781C14.2289 26.7026 15.4645 27.9382 16.989 27.9382H22.4965V33.5321C22.4965 35.0565 23.7321 36.2921 25.2566 36.2921C26.7811 36.2921 28.0166 35.0565 28.0166 33.5321V27.9382H33.5305C33.6231 27.9382 33.711 27.9193 33.8021 27.9099V38.8685L32.6309 38.7507C30.5867 38.286 28.4782 38.6204 26.6617 39.7132C24.7966 40.8357 23.4684 42.6224 22.9173 44.7419C21.7759 49.1426 24.379 53.6375 28.7169 54.7616C28.8001 54.7836 28.8817 54.8009 28.9665 54.8134L33.8005 55.5968V56.0082L30.4376 56.5231C26.0165 57.2658 23.0272 61.511 23.7776 65.9949C24.4527 70.0267 27.9303 72.8982 31.8019 72.8982C32.2321 72.8982 32.6686 72.8637 33.1019 72.7915L33.799 72.6894V85.6655C33.799 89.4194 36.851 92.4714 40.6018 92.4714H42.0619C42.817 94.5878 43.3194 96.3964 43.7622 98.0198C44.2222 99.7076 44.6555 101.301 45.2898 102.893C45.72 103.973 46.7577 104.63 47.8536 104.63C48.1959 104.63 48.5413 104.567 48.8757 104.433C50.2902 103.87 50.981 102.264 50.4158 100.849C49.8977 99.549 49.5225 98.1674 49.086 96.5707C48.7469 95.3288 48.3701 93.9739 47.8881 92.4714H72.3472C73.8701 92.4714 75.1072 91.2358 75.1072 89.7114C75.1072 88.1869 73.8701 86.9513 72.3472 86.9513H40.6049C39.8968 86.9513 39.3206 86.3751 39.3206 85.6655V6.80595C39.3206 6.09788 39.8968 5.52169 40.6049 5.52169H84.6732C85.3813 5.52169 85.9591 6.09788 85.9591 6.80595V50.6561C84.9072 50.7173 83.962 50.8005 83.1346 50.8837V13.5805C83.1346 12.5647 82.312 11.7405 81.2946 11.7405H43.9835C42.9678 11.7405 42.1435 12.5631 42.1435 13.5805V75.729C42.1435 76.7447 42.9662 77.569 43.9835 77.569H74.1982C73.7366 78.5707 73.3896 79.6304 73.2232 80.753C72.9987 82.2586 74.0412 83.6637 75.5468 83.8851C77.043 84.119 78.456 83.0687 78.6805 81.5615C79.0715 78.9255 81.6321 76.3067 83.6857 74.2061C85.4033 72.4524 86.7566 71.066 87.1366 69.4411C87.5086 67.8601 87.1837 66.3451 86.2228 65.1738C84.4001 62.9507 80.9256 62.7074 79.5252 62.7419C78.7292 62.5786 78.0384 62.1437 77.5611 61.5C77.0713 60.8406 76.8719 60.0384 76.9928 59.2377C77.1105 58.4699 77.3288 57.0428 81.3684 56.6236L82.0137 56.5514C87.9216 55.8904 92.6033 55.9328 96.0589 56.655C96.0918 56.6629 96.128 56.666 96.1609 56.6723C98.3715 57.1464 100.083 57.8969 101.248 58.9425C102.458 60.0242 103.022 61.3996 103.019 63.2679C102.992 76.3287 96.3368 91.0129 86.4552 99.8096C85.3169 100.824 85.2165 102.568 86.2291 103.705C86.7739 104.317 87.5291 104.63 88.2905 104.63C88.9421 104.63 89.5983 104.4 90.1227 103.931C101.106 94.1513 108.506 77.8155 108.536 63.2773C108.548 59.8704 107.302 56.9486 104.936 54.8291ZM29.9996 49.3922C28.6698 48.9871 27.8926 47.5459 28.2616 46.1282C28.4468 45.4154 28.8896 44.8141 29.5081 44.4436C30.1095 44.0809 30.8018 43.9726 31.4706 44.15C31.6072 44.1829 31.7454 44.2081 31.8883 44.2238L33.8037 44.4153V50.0092L29.9996 49.3922ZM32.2462 67.3404C30.8112 67.5728 29.4658 66.5649 29.2208 65.0859C28.9728 63.6038 29.9273 62.2065 31.3121 61.9742L33.8005 61.5927V67.1112L32.2462 67.3404ZM71.5386 58.4071C71.1948 60.6711 71.76 62.9382 73.129 64.7861C74.5248 66.6685 76.5815 67.8947 78.9208 68.2353C79.0778 68.2573 79.2395 68.2746 79.4012 68.2636C80.0951 68.2683 80.9131 68.3531 81.4689 68.5054C81.0356 69.0282 80.3133 69.7645 79.7419 70.347C78.7402 71.3706 77.5941 72.5576 76.5328 73.8905H45.8236V15.419H79.4561V51.3217C73.6942 52.3438 71.9547 55.6816 71.5386 58.4071Z" fill="black"/>
<path d="M57.9754 45.7011H54.0457V41.7698C54.0457 40.7541 53.223 39.9298 52.2056 39.9298C51.1883 39.9298 50.3656 40.7525 50.3656 41.7698V47.5412C50.3656 48.557 51.1883 49.3812 52.2056 49.3812H57.9754C58.9912 49.3812 59.8139 48.5585 59.8139 47.5412C59.8139 46.5238 58.9912 45.7011 57.9754 45.7011Z" fill="black"/>
<path d="M52.2056 34.2841C53.2214 34.2841 54.0457 33.4614 54.0457 32.444V28.5143H57.9754C58.9912 28.5143 59.8139 27.6917 59.8139 26.6743C59.8139 25.6569 58.9928 24.8358 57.9754 24.8358H52.2056C51.1899 24.8358 50.3656 25.6569 50.3656 26.6743V32.444C50.3656 33.4598 51.1899 34.2841 52.2056 34.2841Z" fill="black"/>
<path d="M73.0725 24.8358H67.3028C66.287 24.8358 65.4627 25.6569 65.4627 26.6743C65.4627 27.6917 66.2854 28.5143 67.3028 28.5143H71.2325V32.444C71.2325 33.4598 72.0551 34.2841 73.0725 34.2841C74.0899 34.2841 74.9125 33.4614 74.9125 32.444V26.6743C74.9125 25.6585 74.0899 24.8358 73.0725 24.8358Z" fill="black"/>
<path d="M73.0725 39.9314C72.0567 39.9314 71.2325 40.7541 71.2325 41.7714V45.7027H67.3028C66.287 45.7027 65.4627 46.5254 65.4627 47.5427C65.4627 48.5601 66.2854 49.3828 67.3028 49.3828H73.0725C74.0883 49.3828 74.9125 48.5601 74.9125 47.5427V41.7714C74.9125 40.7541 74.0899 39.9314 73.0725 39.9314Z" fill="black"/>
<path d="M66.4738 38.9093C67.4896 38.9093 68.3138 38.0866 68.3138 37.0693C68.3138 36.0519 67.4912 35.2292 66.4738 35.2292H64.4783V33.273C64.4783 32.2572 63.6572 31.433 62.6383 31.433C61.6225 31.433 60.7982 32.2556 60.7982 33.273V35.2292H58.8043C57.7886 35.2292 56.9643 36.0519 56.9643 37.0693C56.9643 38.0866 57.787 38.9093 58.8043 38.9093H60.7982V40.9425C60.7982 41.9583 61.6209 42.7825 62.6383 42.7825C63.6556 42.7825 64.4783 41.9598 64.4783 40.9425V38.9093H66.4738Z" fill="black"/>
<path d="M15.1976 45.0009H5.51855V35.3172C5.51855 33.7943 4.28296 32.5587 2.75849 32.5587C1.23559 32.5587 0 33.7943 0 35.3172V47.761C0 49.2854 1.23559 50.521 2.75849 50.521H15.1976C16.7221 50.521 17.9577 49.2854 17.9577 47.761C17.9577 46.2365 16.7221 45.0009 15.1976 45.0009Z" fill="black"/>
<path d="M2.75849 17.9639C4.28296 17.9639 5.51855 16.7268 5.51855 15.2039V5.52012H15.1976C16.7221 5.52012 17.9577 4.28453 17.9577 2.76006C17.9577 1.23716 16.7221 0 15.1976 0H2.75849C1.23559 0 0 1.23716 0 2.76006V15.2039C0 16.7268 1.23559 17.9639 2.75849 17.9639Z" fill="black"/>
</svg>
